solid OpenSCAD_Model
  facet normal 0.994522 0.104528 0
    outer loop
      vertex 7.54076 0 -0.0999994
      vertex 7.37598 1.56781 -1
      vertex 7.37598 1.56781 -0.0999994
    endloop
  endfacet
  facet normal 0.994522 0.104528 0
    outer loop
      vertex 7.37598 1.56781 -1
      vertex 7.54076 0 -0.0999994
      vertex 7.54076 0 -1
    endloop
  endfacet
  facet normal 0.994523 0.10452 0
    outer loop
      vertex 7.37598 1.56781 61
      vertex 7.37722 1.55594 0.334892
      vertex 7.37598 1.56781 0.334753
    endloop
  endfacet
  facet normal 0.994522 0.104528 -0
    outer loop
      vertex 7.54076 0 0.353027
      vertex 7.37598 1.56781 61
      vertex 7.54076 0 61
    endloop
  endfacet
  facet normal 0.994522 0.104528 -1.56666e-09
    outer loop
      vertex 7.37598 1.56781 61
      vertex 7.54076 0 0.353027
      vertex 7.37722 1.55594 0.334892
    endloop
  endfacet
  facet normal -0.994522 0.104528 0
    outer loop
      vertex -7.54076 0 -1
      vertex -7.37598 1.56781 -0.0999994
      vertex -7.37598 1.56781 -1
    endloop
  endfacet
  facet normal -0.994522 0.104528 0
    outer loop
      vertex -7.37598 1.56781 -0.0999994
      vertex -7.54076 0 -1
      vertex -7.54076 0 -0.0999994
    endloop
  endfacet
  facet normal -0.994523 0.10452 0
    outer loop
      vertex -7.37722 1.55594 0.334892
      vertex -7.37598 1.56781 61
      vertex -7.37598 1.56781 0.334753
    endloop
  endfacet
  facet normal -0.994522 0.104528 -1.56666e-09
    outer loop
      vertex -7.54076 0 0.353027
      vertex -7.37598 1.56781 61
      vertex -7.37722 1.55594 0.334892
    endloop
  endfacet
  facet normal -0.994522 0.104528 0
    outer loop
      vertex -7.37598 1.56781 61
      vertex -7.54076 0 0.353027
      vertex -7.54076 0 61
    endloop
  endfacet
  facet normal 0 1 -0
    outer loop
      vertex 0.788223 7.49945 -1
      vertex -0.788223 7.49945 -0.0999994
      vertex 0.788223 7.49945 -0.0999994
    endloop
  endfacet
  facet normal 0 1 0
    outer loop
      vertex -0.788223 7.49945 -0.0999994
      vertex 0.788223 7.49945 -1
      vertex -0.788223 7.49945 -1
    endloop
  endfacet
  facet normal 0 1 -0
    outer loop
      vertex 0.788223 7.49945 0.34319
      vertex -0.788223 7.49945 61
      vertex 0.788223 7.49945 61
    endloop
  endfacet
  facet normal 0 1 0
    outer loop
      vertex -0.788223 7.49945 61
      vertex 0.788223 7.49945 0.34319
      vertex -0.788223 7.49945 0.34319
    endloop
  endfacet
  facet normal 0 -1 0
    outer loop
      vertex -0.788223 -7.49945 0.34319
      vertex 0.788223 -7.49945 61
      vertex -0.788223 -7.49945 61
    endloop
  endfacet
  facet normal 0 -1 -0
    outer loop
      vertex 0.788223 -7.49945 61
      vertex -0.788223 -7.49945 0.34319
      vertex 0.788223 -7.49945 0.34319
    endloop
  endfacet
  facet normal 0 -1 0
    outer loop
      vertex -0.788223 -7.49945 -1
      vertex 0.788223 -7.49945 -0.0999994
      vertex -0.788223 -7.49945 -0.0999994
    endloop
  endfacet
  facet normal 0 -1 -0
    outer loop
      vertex 0.788223 -7.49945 -0.0999994
      vertex -0.788223 -7.49945 -1
      vertex 0.788223 -7.49945 -1
    endloop
  endfacet
  facet normal 0.743145 0.669131 0
    outer loop
      vertex 6.1006 4.43235 -0.0999994
      vertex 5.04575 5.60388 -1
      vertex 5.04575 5.60388 -0.0999994
    endloop
  endfacet
  facet normal 0.743145 0.669131 0
    outer loop
      vertex 5.04575 5.60388 -1
      vertex 6.1006 4.43235 -0.0999994
      vertex 6.1006 4.43235 -1
    endloop
  endfacet
  facet normal 0.743145 0.669131 0
    outer loop
      vertex 5.04575 5.60388 61
      vertex 5.546 5.0483 0.374179
      vertex 5.04575 5.60388 0.313643
    endloop
  endfacet
  facet normal 0.743144 0.669132 -1.55878e-08
    outer loop
      vertex 5.04575 5.60388 61
      vertex 5.6136 4.97322 0.38236
      vertex 5.546 5.0483 0.374179
    endloop
  endfacet
  facet normal 0.743145 0.669131 7.66133e-10
    outer loop
      vertex 6.1006 4.43235 61
      vertex 5.6136 4.97322 0.38236
      vertex 5.04575 5.60388 61
    endloop
  endfacet
  facet normal 0.743145 0.669131 -1.55863e-09
    outer loop
      vertex 5.6136 4.97322 0.38236
      vertex 6.1006 4.43235 61
      vertex 5.68598 4.89284 0.372357
    endloop
  endfacet
  facet normal 0.743145 0.669131 0
    outer loop
      vertex 5.68598 4.89284 0.372357
      vertex 6.1006 4.43235 61
      vertex 6.1006 4.43235 0.315052
    endloop
  endfacet
  facet normal -0.743145 0.669131 0
    outer loop
      vertex -6.1006 4.43235 -1
      vertex -5.04575 5.60388 -0.0999994
      vertex -5.04575 5.60388 -1
    endloop
  endfacet
  facet normal -0.743145 0.669131 0
    outer loop
      vertex -5.04575 5.60388 -0.0999994
      vertex -6.1006 4.43235 -1
      vertex -6.1006 4.43235 -0.0999994
    endloop
  endfacet
  facet normal -0.743145 0.669131 0
    outer loop
      vertex -5.546 5.0483 0.374179
      vertex -5.04575 5.60388 61
      vertex -5.04575 5.60388 0.313643
    endloop
  endfacet
  facet normal -0.743144 0.669132 -1.55878e-08
    outer loop
      vertex -5.6136 4.97322 0.38236
      vertex -5.04575 5.60388 61
      vertex -5.546 5.0483 0.374179
    endloop
  endfacet
  facet normal -0.743145 0.669131 -1.55863e-09
    outer loop
      vertex -6.1006 4.43235 61
      vertex -5.6136 4.97322 0.38236
      vertex -5.68598 4.89284 0.372357
    endloop
  endfacet
  facet normal -0.743145 0.669131 0
    outer loop
      vertex -6.1006 4.43235 61
      vertex -5.68598 4.89284 0.372357
      vertex -6.1006 4.43235 0.315052
    endloop
  endfacet
  facet normal -0.743145 0.669131 7.66133e-10
    outer loop
      vertex -5.6136 4.97322 0.38236
      vertex -6.1006 4.43235 61
      vertex -5.04575 5.60388 61
    endloop
  endfacet
  facet normal 0 0 1
    outer loop
      vertex 3.82605 -2.55773 61
      vertex 7.54076 0 61
      vertex 7.37598 1.56781 61
    endloop
  endfacet
  facet normal 0 0 1
    outer loop
      vertex 3.82605 -2.55773 61
      vertex 7.37598 1.56781 61
      vertex 6.88883 3.0671 61
    endloop
  endfacet
  facet normal 0 0 1
    outer loop
      vertex 7.54076 0 61
      vertex 3.82605 -2.55773 61
      vertex 7.37598 -1.56781 61
    endloop
  endfacet
  facet normal 0 0 1
    outer loop
      vertex 3.82605 -2.55773 61
      vertex 6.88883 3.0671 61
      vertex 6.1006 4.43235 61
    endloop
  endfacet
  facet normal 0 0 1
    outer loop
      vertex 7.37598 -1.56781 61
      vertex 3.82605 -2.55773 61
      vertex 6.88883 -3.0671 61
    endloop
  endfacet
  facet normal 0 0 1
    outer loop
      vertex 6.88883 -3.0671 61
      vertex 3.82605 -2.55773 61
      vertex 6.1006 -4.43235 61
    endloop
  endfacet
  facet normal 0 0 1
    outer loop
      vertex 3.82605 -2.55773 61
      vertex 6.1006 4.43235 61
      vertex 5.04575 5.60388 61
    endloop
  endfacet
  facet normal 0 0 1
    outer loop
      vertex 6.1006 -4.43235 61
      vertex 3.82605 -2.55773 61
      vertex 6.08318 -4.45169 61
    endloop
  endfacet
  facet normal 0 0 1
    outer loop
      vertex 3.77038 6.53049 61
      vertex 3.82605 -2.55773 61
      vertex 5.04575 5.60388 61
    endloop
  endfacet
  facet normal 0 0 1
    outer loop
      vertex 2.33022 7.17169 61
      vertex 3.82605 -2.55773 61
      vertex 3.77038 6.53049 61
    endloop
  endfacet
  facet normal 0 0 1
    outer loop
      vertex 0.788223 7.49945 61
      vertex 3.82605 -2.55773 61
      vertex 2.33022 7.17169 61
    endloop
  endfacet
  facet normal 0 0 1
    outer loop
      vertex 3.18326 -3.32378 61
      vertex 5.04575 -5.60388 61
      vertex 5.41365 -5.19529 61
    endloop
  endfacet
  facet normal 0 0 1
    outer loop
      vertex 5.04575 -5.60388 61
      vertex 3.18326 -3.32378 61
      vertex 3.77038 -6.53049 61
    endloop
  endfacet
  facet normal 0 0 1
    outer loop
      vertex 3.18326 -3.32378 61
      vertex 2.33022 -7.17169 61
      vertex 3.77038 -6.53049 61
    endloop
  endfacet
  facet normal -0 0 1
    outer loop
      vertex -0.788223 7.49945 61
      vertex 3.82605 -2.55773 61
      vertex 0.788223 7.49945 61
    endloop
  endfacet
  facet normal -0 0 1
    outer loop
      vertex -2.33022 7.17169 61
      vertex 3.82605 -2.55773 61
      vertex -0.788223 7.49945 61
    endloop
  endfacet
  facet normal 0 0 1
    outer loop
      vertex 3.18326 -3.32378 61
      vertex 0.788223 -7.49945 61
      vertex 2.33022 -7.17169 61
    endloop
  endfacet
  facet normal -0 0 1
    outer loop
      vertex -3.77038 6.53049 61
      vertex 3.82605 -2.55773 61
      vertex -2.33022 7.17169 61
    endloop
  endfacet
  facet normal 0 0 1
    outer loop
      vertex 3.18326 -3.32378 61
      vertex -0.788223 -7.49945 61
      vertex 0.788223 -7.49945 61
    endloop
  endfacet
  facet normal -0 0 1
    outer loop
      vertex -5.04575 5.60388 61
      vertex 3.82605 -2.55773 61
      vertex -3.77038 6.53049 61
    endloop
  endfacet
  facet normal 0 0 1
    outer loop
      vertex 3.18326 -3.32378 61
      vertex -2.33022 -7.17169 61
      vertex -0.788223 -7.49945 61
    endloop
  endfacet
  facet normal 0 0 1
    outer loop
      vertex 3.82605 -2.55773 61
      vertex -5.04575 5.60388 61
      vertex 3.18326 -3.32378 61
    endloop
  endfacet
  facet normal 0 0 1
    outer loop
      vertex 3.18326 -3.32378 61
      vertex -3.77038 -6.53049 61
      vertex -2.33022 -7.17169 61
    endloop
  endfacet
  facet normal -0 0 1
    outer loop
      vertex -6.1006 4.43235 61
      vertex 3.18326 -3.32378 61
      vertex -5.04575 5.60388 61
    endloop
  endfacet
  facet normal 0 0 1
    outer loop
      vertex 3.18326 -3.32378 61
      vertex -5.04575 -5.60388 61
      vertex -3.77038 -6.53049 61
    endloop
  endfacet
  facet normal -0 0 1
    outer loop
      vertex -6.88883 3.0671 61
      vertex 3.18326 -3.32378 61
      vertex -6.1006 4.43235 61
    endloop
  endfacet
  facet normal 0 0 1
    outer loop
      vertex 3.18326 -3.32378 61
      vertex -6.1006 -4.43235 61
      vertex -5.04575 -5.60388 61
    endloop
  endfacet
  facet normal -0 0 1
    outer loop
      vertex -7.37598 1.56781 61
      vertex 3.18326 -3.32378 61
      vertex -6.88883 3.0671 61
    endloop
  endfacet
  facet normal 0 0 1
    outer loop
      vertex 3.18326 -3.32378 61
      vertex -6.88883 -3.0671 61
      vertex -6.1006 -4.43235 61
    endloop
  endfacet
  facet normal -0 0 1
    outer loop
      vertex -7.54076 0 61
      vertex 3.18326 -3.32378 61
      vertex -7.37598 1.56781 61
    endloop
  endfacet
  facet normal 0 0 1
    outer loop
      vertex 3.18326 -3.32378 61
      vertex -7.37598 -1.56781 61
      vertex -6.88883 -3.0671 61
    endloop
  endfacet
  facet normal 0 0 1
    outer loop
      vertex 3.18326 -3.32378 61
      vertex -7.54076 0 61
      vertex -7.37598 -1.56781 61
    endloop
  endfacet
  facet normal -0.406737 0.913545 0
    outer loop
      vertex -2.33022 7.17169 -1
      vertex -3.77038 6.53049 -0.0999994
      vertex -2.33022 7.17169 -0.0999994
    endloop
  endfacet
  facet normal -0.406737 0.913545 0
    outer loop
      vertex -3.77038 6.53049 -0.0999994
      vertex -2.33022 7.17169 -1
      vertex -3.77038 6.53049 -1
    endloop
  endfacet
  facet normal -0.406737 0.913545 2.5273e-09
    outer loop
      vertex -2.33022 7.17169 61
      vertex -2.66358 7.02327 0.374007
      vertex -3.77038 6.53049 61
    endloop
  endfacet
  facet normal -0.406737 0.913545 5.55235e-10
    outer loop
      vertex -2.33022 7.17169 61
      vertex -2.47852 7.10566 0.348311
      vertex -2.66358 7.02327 0.374007
    endloop
  endfacet
  facet normal -0.406737 0.913545 0
    outer loop
      vertex -2.47852 7.10566 0.348311
      vertex -2.33022 7.17169 61
      vertex -2.33022 7.17169 0.32772
    endloop
  endfacet
  facet normal -0.406739 0.913545 -3.27178e-08
    outer loop
      vertex -2.77729 6.97264 0.368239
      vertex -3.77038 6.53049 61
      vertex -2.66358 7.02327 0.374007
    endloop
  endfacet
  facet normal -0.406737 0.913545 0
    outer loop
      vertex -3.77038 6.53049 61
      vertex -2.77729 6.97264 0.368239
      vertex -3.77038 6.53049 0.317868
    endloop
  endfacet
  facet normal 0.951056 -0.309017 0
    outer loop
      vertex 6.88883 -3.0671 -0.0999994
      vertex 7.37598 -1.56781 -1
      vertex 7.37598 -1.56781 -0.0999994
    endloop
  endfacet
  facet normal 0.951056 -0.309017 0
    outer loop
      vertex 7.37598 -1.56781 -1
      vertex 6.88883 -3.0671 -0.0999994
      vertex 6.88883 -3.0671 -1
    endloop
  endfacet
  facet normal 0.951056 -0.309018 0
    outer loop
      vertex 7.37598 -1.56781 61
      vertex 7.30071 -1.79946 0.368425
      vertex 7.37598 -1.56781 0.334753
    endloop
  endfacet
  facet normal 0.951056 -0.309017 -2.77431e-09
    outer loop
      vertex 6.88883 -3.0671 61
      vertex 7.30071 -1.79946 0.368425
      vertex 7.37598 -1.56781 61
    endloop
  endfacet
  facet normal 0.951057 -0.309016 4.2452e-08
    outer loop
      vertex 7.30071 -1.79946 0.368425
      vertex 6.88883 -3.0671 61
      vertex 7.25639 -1.93587 0.363439
    endloop
  endfacet
  facet normal 0.951056 -0.309018 0
    outer loop
      vertex 7.25639 -1.93587 0.363439
      vertex 6.88883 -3.0671 61
      vertex 6.88883 -3.0671 0.322091
    endloop
  endfacet
  facet normal 0.866025 0.5 0
    outer loop
      vertex 6.88883 3.0671 -0.0999994
      vertex 6.1006 4.43235 -1
      vertex 6.1006 4.43235 -0.0999994
    endloop
  endfacet
  facet normal 0.866025 0.5 0
    outer loop
      vertex 6.1006 4.43235 -1
      vertex 6.88883 3.0671 -0.0999994
      vertex 6.88883 3.0671 -1
    endloop
  endfacet
  facet normal 0.866026 0.5 0
    outer loop
      vertex 6.1006 4.43235 61
      vertex 6.64582 3.488 0.378186
      vertex 6.1006 4.43235 0.315052
    endloop
  endfacet
  facet normal 0.866025 0.5 -1.47472e-09
    outer loop
      vertex 6.88883 3.0671 61
      vertex 6.64582 3.488 0.378186
      vertex 6.1006 4.43235 61
    endloop
  endfacet
  facet normal 0.866025 0.5 0
    outer loop
      vertex 6.64582 3.488 0.378186
      vertex 6.88883 3.0671 61
      vertex 6.88883 3.0671 0.322091
    endloop
  endfacet
  facet normal 0.951056 0.309017 0
    outer loop
      vertex 7.37598 1.56781 -0.0999994
      vertex 6.88883 3.0671 -1
      vertex 6.88883 3.0671 -0.0999994
    endloop
  endfacet
  facet normal 0.951056 0.309017 0
    outer loop
      vertex 6.88883 3.0671 -1
      vertex 7.37598 1.56781 -0.0999994
      vertex 7.37598 1.56781 -1
    endloop
  endfacet
  facet normal 0.951056 0.309018 0
    outer loop
      vertex 6.88883 3.0671 61
      vertex 7.25639 1.93587 0.363439
      vertex 6.88883 3.0671 0.322091
    endloop
  endfacet
  facet normal 0.951057 0.309016 4.2452e-08
    outer loop
      vertex 6.88883 3.0671 61
      vertex 7.30071 1.79946 0.368425
      vertex 7.25639 1.93587 0.363439
    endloop
  endfacet
  facet normal 0.951056 0.309017 -2.77431e-09
    outer loop
      vertex 7.37598 1.56781 61
      vertex 7.30071 1.79946 0.368425
      vertex 6.88883 3.0671 61
    endloop
  endfacet
  facet normal 0.951056 0.309018 0
    outer loop
      vertex 7.30071 1.79946 0.368425
      vertex 7.37598 1.56781 61
      vertex 7.37598 1.56781 0.334753
    endloop
  endfacet
  facet normal 0.406737 0.913545 -0
    outer loop
      vertex 3.77038 6.53049 -1
      vertex 2.33022 7.17169 -0.0999994
      vertex 3.77038 6.53049 -0.0999994
    endloop
  endfacet
  facet normal 0.406737 0.913545 0
    outer loop
      vertex 2.33022 7.17169 -0.0999994
      vertex 3.77038 6.53049 -1
      vertex 2.33022 7.17169 -1
    endloop
  endfacet
  facet normal 0.406737 0.913545 2.5273e-09
    outer loop
      vertex 3.77038 6.53049 61
      vertex 2.66358 7.02327 0.374007
      vertex 2.33022 7.17169 61
    endloop
  endfacet
  facet normal 0.406739 0.913545 -3.27178e-08
    outer loop
      vertex 3.77038 6.53049 61
      vertex 2.77729 6.97264 0.368239
      vertex 2.66358 7.02327 0.374007
    endloop
  endfacet
  facet normal 0.406737 0.913545 0
    outer loop
      vertex 2.77729 6.97264 0.368239
      vertex 3.77038 6.53049 61
      vertex 3.77038 6.53049 0.317868
    endloop
  endfacet
  facet normal 0.406737 0.913545 5.55235e-10
    outer loop
      vertex 2.47852 7.10566 0.348311
      vertex 2.33022 7.17169 61
      vertex 2.66358 7.02327 0.374007
    endloop
  endfacet
  facet normal 0.406737 0.913545 0
    outer loop
      vertex 2.33022 7.17169 61
      vertex 2.47852 7.10566 0.348311
      vertex 2.33022 7.17169 0.32772
    endloop
  endfacet
  facet normal 0.207911 0.978148 -0
    outer loop
      vertex 2.33022 7.17169 -1
      vertex 0.788223 7.49945 -0.0999994
      vertex 2.33022 7.17169 -0.0999994
    endloop
  endfacet
  facet normal 0.207911 0.978148 0
    outer loop
      vertex 0.788223 7.49945 -0.0999994
      vertex 2.33022 7.17169 -1
      vertex 0.788223 7.49945 -1
    endloop
  endfacet
  facet normal 0.207911 0.978148 -2.40959e-09
    outer loop
      vertex 2.33022 7.17169 61
      vertex 0.907519 7.47409 0.361435
      vertex 0.788223 7.49945 61
    endloop
  endfacet
  facet normal 0.207911 0.978148 0
    outer loop
      vertex 0.907519 7.47409 0.361435
      vertex 2.33022 7.17169 61
      vertex 2.33022 7.17169 0.32772
    endloop
  endfacet
  facet normal 0.207913 0.978147 0
    outer loop
      vertex 0.788223 7.49945 61
      vertex 0.907519 7.47409 0.361435
      vertex 0.788223 7.49945 0.34319
    endloop
  endfacet
  facet normal 0.587785 0.809017 -0
    outer loop
      vertex 5.04575 5.60388 -1
      vertex 3.77038 6.53049 -0.0999994
      vertex 5.04575 5.60388 -0.0999994
    endloop
  endfacet
  facet normal 0.587785 0.809017 0
    outer loop
      vertex 3.77038 6.53049 -0.0999994
      vertex 5.04575 5.60388 -1
      vertex 3.77038 6.53049 -1
    endloop
  endfacet
  facet normal 0.587785 0.809017 -3.00905e-09
    outer loop
      vertex 5.04575 5.60388 61
      vertex 4.26142 6.17373 0.38097
      vertex 3.77038 6.53049 61
    endloop
  endfacet
  facet normal 0.587785 0.809017 0
    outer loop
      vertex 4.26142 6.17373 0.38097
      vertex 5.04575 5.60388 61
      vertex 5.04575 5.60388 0.313643
    endloop
  endfacet
  facet normal 0.587785 0.809017 0
    outer loop
      vertex 3.77038 6.53049 61
      vertex 4.26142 6.17373 0.38097
      vertex 3.77038 6.53049 0.317868
    endloop
  endfacet
  facet normal -0.866026 0.5 0
    outer loop
      vertex -6.64582 3.488 0.378186
      vertex -6.1006 4.43235 61
      vertex -6.1006 4.43235 0.315052
    endloop
  endfacet
  facet normal -0.866025 0.5 0
    outer loop
      vertex -6.88883 3.0671 61
      vertex -6.64582 3.488 0.378186
      vertex -6.88883 3.0671 0.322091
    endloop
  endfacet
  facet normal -0.866025 0.5 -1.47472e-09
    outer loop
      vertex -6.64582 3.488 0.378186
      vertex -6.88883 3.0671 61
      vertex -6.1006 4.43235 61
    endloop
  endfacet
  facet normal -0.866025 0.5 0
    outer loop
      vertex -6.88883 3.0671 -1
      vertex -6.1006 4.43235 -0.0999994
      vertex -6.1006 4.43235 -1
    endloop
  endfacet
  facet normal -0.866025 0.5 0
    outer loop
      vertex -6.1006 4.43235 -0.0999994
      vertex -6.88883 3.0671 -1
      vertex -6.88883 3.0671 -0.0999994
    endloop
  endfacet
  facet normal -0.951056 0.309018 0
    outer loop
      vertex -7.25639 1.93587 0.363439
      vertex -6.88883 3.0671 61
      vertex -6.88883 3.0671 0.322091
    endloop
  endfacet
  facet normal -0.951057 0.309016 4.2452e-08
    outer loop
      vertex -7.30071 1.79946 0.368425
      vertex -6.88883 3.0671 61
      vertex -7.25639 1.93587 0.363439
    endloop
  endfacet
  facet normal -0.951056 0.309018 0
    outer loop
      vertex -7.37598 1.56781 61
      vertex -7.30071 1.79946 0.368425
      vertex -7.37598 1.56781 0.334753
    endloop
  endfacet
  facet normal -0.951056 0.309017 -2.77431e-09
    outer loop
      vertex -7.30071 1.79946 0.368425
      vertex -7.37598 1.56781 61
      vertex -6.88883 3.0671 61
    endloop
  endfacet
  facet normal -0.951056 0.309017 0
    outer loop
      vertex -7.37598 1.56781 -1
      vertex -6.88883 3.0671 -0.0999994
      vertex -6.88883 3.0671 -1
    endloop
  endfacet
  facet normal -0.951056 0.309017 0
    outer loop
      vertex -6.88883 3.0671 -0.0999994
      vertex -7.37598 1.56781 -1
      vertex -7.37598 1.56781 -0.0999994
    endloop
  endfacet
  facet normal -0.587785 0.809017 0
    outer loop
      vertex -3.77038 6.53049 -1
      vertex -5.04575 5.60388 -0.0999994
      vertex -3.77038 6.53049 -0.0999994
    endloop
  endfacet
  facet normal -0.587785 0.809017 0
    outer loop
      vertex -5.04575 5.60388 -0.0999994
      vertex -3.77038 6.53049 -1
      vertex -5.04575 5.60388 -1
    endloop
  endfacet
  facet normal -0.587785 0.809017 -3.00905e-09
    outer loop
      vertex -3.77038 6.53049 61
      vertex -4.26142 6.17373 0.38097
      vertex -5.04575 5.60388 61
    endloop
  endfacet
  facet normal -0.587785 0.809017 0
    outer loop
      vertex -4.26142 6.17373 0.38097
      vertex -3.77038 6.53049 61
      vertex -3.77038 6.53049 0.317868
    endloop
  endfacet
  facet normal -0.587785 0.809017 0
    outer loop
      vertex -5.04575 5.60388 61
      vertex -4.26142 6.17373 0.38097
      vertex -5.04575 5.60388 0.313643
    endloop
  endfacet
  facet normal -0.207911 0.978148 0
    outer loop
      vertex -0.788223 7.49945 -1
      vertex -2.33022 7.17169 -0.0999994
      vertex -0.788223 7.49945 -0.0999994
    endloop
  endfacet
  facet normal -0.207911 0.978148 0
    outer loop
      vertex -2.33022 7.17169 -0.0999994
      vertex -0.788223 7.49945 -1
      vertex -2.33022 7.17169 -1
    endloop
  endfacet
  facet normal -0.207911 0.978148 -2.40959e-09
    outer loop
      vertex -0.788223 7.49945 61
      vertex -0.907519 7.47409 0.361435
      vertex -2.33022 7.17169 61
    endloop
  endfacet
  facet normal -0.207913 0.978147 0
    outer loop
      vertex -0.907519 7.47409 0.361435
      vertex -0.788223 7.49945 61
      vertex -0.788223 7.49945 0.34319
    endloop
  endfacet
  facet normal -0.207911 0.978148 0
    outer loop
      vertex -2.33022 7.17169 61
      vertex -0.907519 7.47409 0.361435
      vertex -2.33022 7.17169 0.32772
    endloop
  endfacet
  facet normal 0.994522 -0.104528 0
    outer loop
      vertex 7.37598 -1.56781 61
      vertex 7.54076 0 0.353027
      vertex 7.54076 0 61
    endloop
  endfacet
  facet normal 0.994522 -0.104528 -1.56666e-09
    outer loop
      vertex 7.54076 0 0.353027
      vertex 7.37598 -1.56781 61
      vertex 7.37722 -1.55594 0.334892
    endloop
  endfacet
  facet normal 0.994523 -0.10452 0
    outer loop
      vertex 7.37722 -1.55594 0.334892
      vertex 7.37598 -1.56781 61
      vertex 7.37598 -1.56781 0.334753
    endloop
  endfacet
  facet normal 0.994522 -0.104528 0
    outer loop
      vertex 7.37598 -1.56781 -0.0999994
      vertex 7.54076 0 -1
      vertex 7.54076 0 -0.0999994
    endloop
  endfacet
  facet normal 0.994522 -0.104528 0
    outer loop
      vertex 7.54076 0 -1
      vertex 7.37598 -1.56781 -0.0999994
      vertex 7.37598 -1.56781 -1
    endloop
  endfacet
  facet normal -0.994522 -0.104528 -1.56666e-09
    outer loop
      vertex -7.37598 -1.56781 61
      vertex -7.54076 0 0.353027
      vertex -7.37722 -1.55594 0.334892
    endloop
  endfacet
  facet normal -0.994523 -0.10452 -0
    outer loop
      vertex -7.37598 -1.56781 61
      vertex -7.37722 -1.55594 0.334892
      vertex -7.37598 -1.56781 0.334753
    endloop
  endfacet
  facet normal -0.994522 -0.104528 0
    outer loop
      vertex -7.54076 0 0.353027
      vertex -7.37598 -1.56781 61
      vertex -7.54076 0 61
    endloop
  endfacet
  facet normal -0.994522 -0.104528 0
    outer loop
      vertex -7.37598 -1.56781 -1
      vertex -7.54076 0 -0.0999994
      vertex -7.54076 0 -1
    endloop
  endfacet
  facet normal -0.994522 -0.104528 0
    outer loop
      vertex -7.54076 0 -0.0999994
      vertex -7.37598 -1.56781 -1
      vertex -7.37598 -1.56781 -0.0999994
    endloop
  endfacet
  facet normal 0.207911 -0.978148 -2.40959e-09
    outer loop
      vertex 0.788223 -7.49945 61
      vertex 0.907519 -7.47409 0.361435
      vertex 2.33022 -7.17169 61
    endloop
  endfacet
  facet normal 0.207913 -0.978147 0
    outer loop
      vertex 0.907519 -7.47409 0.361435
      vertex 0.788223 -7.49945 61
      vertex 0.788223 -7.49945 0.34319
    endloop
  endfacet
  facet normal 0.207911 -0.978148 0
    outer loop
      vertex 2.33022 -7.17169 61
      vertex 0.907519 -7.47409 0.361435
      vertex 2.33022 -7.17169 0.32772
    endloop
  endfacet
  facet normal 0.207911 -0.978148 0
    outer loop
      vertex 0.788223 -7.49945 -1
      vertex 2.33022 -7.17169 -0.0999994
      vertex 0.788223 -7.49945 -0.0999994
    endloop
  endfacet
  facet normal 0.207911 -0.978148 0
    outer loop
      vertex 2.33022 -7.17169 -0.0999994
      vertex 0.788223 -7.49945 -1
      vertex 2.33022 -7.17169 -1
    endloop
  endfacet
  facet normal 0.866025 -0.5 0
    outer loop
      vertex 6.88883 -3.0671 61
      vertex 6.64582 -3.488 0.378186
      vertex 6.88883 -3.0671 0.322091
    endloop
  endfacet
  facet normal 0.866025 -0.5 -1.47472e-09
    outer loop
      vertex 6.1006 -4.43235 61
      vertex 6.64582 -3.488 0.378186
      vertex 6.88883 -3.0671 61
    endloop
  endfacet
  facet normal 0.866026 -0.5 0
    outer loop
      vertex 6.64582 -3.488 0.378186
      vertex 6.1006 -4.43235 61
      vertex 6.1006 -4.43235 0.315052
    endloop
  endfacet
  facet normal 0.866025 -0.5 0
    outer loop
      vertex 6.1006 -4.43235 -0.0999994
      vertex 6.88883 -3.0671 -1
      vertex 6.88883 -3.0671 -0.0999994
    endloop
  endfacet
  facet normal 0.866025 -0.5 0
    outer loop
      vertex 6.88883 -3.0671 -1
      vertex 6.1006 -4.43235 -0.0999994
      vertex 6.1006 -4.43235 -1
    endloop
  endfacet
  facet normal 0 0 -1
    outer loop
      vertex 7.37598 -1.56781 -1
      vertex 7.37598 1.56781 -1
      vertex 7.54076 0 -1
    endloop
  endfacet
  facet normal 0 0 -1
    outer loop
      vertex 6.88883 -3.0671 -1
      vertex 7.37598 1.56781 -1
      vertex 7.37598 -1.56781 -1
    endloop
  endfacet
  facet normal 0 0 -1
    outer loop
      vertex 6.88883 -3.0671 -1
      vertex 6.88883 3.0671 -1
      vertex 7.37598 1.56781 -1
    endloop
  endfacet
  facet normal 0 0 -1
    outer loop
      vertex 6.1006 -4.43235 -1
      vertex 6.88883 3.0671 -1
      vertex 6.88883 -3.0671 -1
    endloop
  endfacet
  facet normal 0 0 -1
    outer loop
      vertex 6.1006 -4.43235 -1
      vertex 6.1006 4.43235 -1
      vertex 6.88883 3.0671 -1
    endloop
  endfacet
  facet normal 0 0 -1
    outer loop
      vertex 5.04575 -5.60388 -1
      vertex 6.1006 4.43235 -1
      vertex 6.1006 -4.43235 -1
    endloop
  endfacet
  facet normal 0 0 -1
    outer loop
      vertex 5.04575 -5.60388 -1
      vertex 5.04575 5.60388 -1
      vertex 6.1006 4.43235 -1
    endloop
  endfacet
  facet normal 0 0 -1
    outer loop
      vertex 3.77038 -6.53049 -1
      vertex 5.04575 5.60388 -1
      vertex 5.04575 -5.60388 -1
    endloop
  endfacet
  facet normal 0 0 -1
    outer loop
      vertex 3.77038 -6.53049 -1
      vertex 3.77038 6.53049 -1
      vertex 5.04575 5.60388 -1
    endloop
  endfacet
  facet normal 0 0 -1
    outer loop
      vertex 2.33022 -7.17169 -1
      vertex 3.77038 6.53049 -1
      vertex 3.77038 -6.53049 -1
    endloop
  endfacet
  facet normal 0 0 -1
    outer loop
      vertex 2.33022 -7.17169 -1
      vertex 2.33022 7.17169 -1
      vertex 3.77038 6.53049 -1
    endloop
  endfacet
  facet normal 0 0 -1
    outer loop
      vertex 0.788223 -7.49945 -1
      vertex 2.33022 7.17169 -1
      vertex 2.33022 -7.17169 -1
    endloop
  endfacet
  facet normal 0 0 -1
    outer loop
      vertex 0.788223 -7.49945 -1
      vertex 0.788223 7.49945 -1
      vertex 2.33022 7.17169 -1
    endloop
  endfacet
  facet normal 0 0 -1
    outer loop
      vertex -0.788223 -7.49945 -1
      vertex 0.788223 7.49945 -1
      vertex 0.788223 -7.49945 -1
    endloop
  endfacet
  facet normal 0 0 -1
    outer loop
      vertex -0.788223 -7.49945 -1
      vertex -0.788223 7.49945 -1
      vertex 0.788223 7.49945 -1
    endloop
  endfacet
  facet normal 0 0 -1
    outer loop
      vertex -2.33022 -7.17169 -1
      vertex -0.788223 7.49945 -1
      vertex -0.788223 -7.49945 -1
    endloop
  endfacet
  facet normal 0 0 -1
    outer loop
      vertex -2.33022 -7.17169 -1
      vertex -2.33022 7.17169 -1
      vertex -0.788223 7.49945 -1
    endloop
  endfacet
  facet normal 0 0 -1
    outer loop
      vertex -3.77038 -6.53049 -1
      vertex -2.33022 7.17169 -1
      vertex -2.33022 -7.17169 -1
    endloop
  endfacet
  facet normal 0 0 -1
    outer loop
      vertex -3.77038 -6.53049 -1
      vertex -3.77038 6.53049 -1
      vertex -2.33022 7.17169 -1
    endloop
  endfacet
  facet normal 0 0 -1
    outer loop
      vertex -5.04575 -5.60388 -1
      vertex -3.77038 6.53049 -1
      vertex -3.77038 -6.53049 -1
    endloop
  endfacet
  facet normal 0 0 -1
    outer loop
      vertex -5.04575 -5.60388 -1
      vertex -5.04575 5.60388 -1
      vertex -3.77038 6.53049 -1
    endloop
  endfacet
  facet normal 0 0 -1
    outer loop
      vertex -6.1006 -4.43235 -1
      vertex -5.04575 5.60388 -1
      vertex -5.04575 -5.60388 -1
    endloop
  endfacet
  facet normal 0 0 -1
    outer loop
      vertex -6.1006 -4.43235 -1
      vertex -6.1006 4.43235 -1
      vertex -5.04575 5.60388 -1
    endloop
  endfacet
  facet normal 0 0 -1
    outer loop
      vertex -6.88883 -3.0671 -1
      vertex -6.1006 4.43235 -1
      vertex -6.1006 -4.43235 -1
    endloop
  endfacet
  facet normal 0 0 -1
    outer loop
      vertex -6.88883 -3.0671 -1
      vertex -6.88883 3.0671 -1
      vertex -6.1006 4.43235 -1
    endloop
  endfacet
  facet normal 0 0 -1
    outer loop
      vertex -7.37598 -1.56781 -1
      vertex -6.88883 3.0671 -1
      vertex -6.88883 -3.0671 -1
    endloop
  endfacet
  facet normal 0 0 -1
    outer loop
      vertex -7.37598 -1.56781 -1
      vertex -7.37598 1.56781 -1
      vertex -6.88883 3.0671 -1
    endloop
  endfacet
  facet normal 0 -0 -1
    outer loop
      vertex -7.37598 1.56781 -1
      vertex -7.37598 -1.56781 -1
      vertex -7.54076 0 -1
    endloop
  endfacet
  facet normal 0.587785 -0.809017 0
    outer loop
      vertex 3.77038 -6.53049 -1
      vertex 5.04575 -5.60388 -0.0999994
      vertex 3.77038 -6.53049 -0.0999994
    endloop
  endfacet
  facet normal 0.587785 -0.809017 0
    outer loop
      vertex 5.04575 -5.60388 -0.0999994
      vertex 3.77038 -6.53049 -1
      vertex 5.04575 -5.60388 -1
    endloop
  endfacet
  facet normal 0.587785 -0.809017 -3.00905e-09
    outer loop
      vertex 3.77038 -6.53049 61
      vertex 4.26142 -6.17373 0.38097
      vertex 5.04575 -5.60388 61
    endloop
  endfacet
  facet normal 0.587785 -0.809017 0
    outer loop
      vertex 4.26142 -6.17373 0.38097
      vertex 3.77038 -6.53049 61
      vertex 3.77038 -6.53049 0.317868
    endloop
  endfacet
  facet normal 0.587785 -0.809017 0
    outer loop
      vertex 5.04575 -5.60388 61
      vertex 4.26142 -6.17373 0.38097
      vertex 5.04575 -5.60388 0.313643
    endloop
  endfacet
  facet normal 0.406737 -0.913545 2.5273e-09
    outer loop
      vertex 2.33022 -7.17169 61
      vertex 2.66358 -7.02327 0.374007
      vertex 3.77038 -6.53049 61
    endloop
  endfacet
  facet normal 0.406737 -0.913545 5.55235e-10
    outer loop
      vertex 2.33022 -7.17169 61
      vertex 2.47852 -7.10566 0.348311
      vertex 2.66358 -7.02327 0.374007
    endloop
  endfacet
  facet normal 0.406737 -0.913545 0
    outer loop
      vertex 2.47852 -7.10566 0.348311
      vertex 2.33022 -7.17169 61
      vertex 2.33022 -7.17169 0.32772
    endloop
  endfacet
  facet normal 0.406739 -0.913545 -3.27178e-08
    outer loop
      vertex 2.77729 -6.97264 0.368239
      vertex 3.77038 -6.53049 61
      vertex 2.66358 -7.02327 0.374007
    endloop
  endfacet
  facet normal 0.406737 -0.913545 0
    outer loop
      vertex 3.77038 -6.53049 61
      vertex 2.77729 -6.97264 0.368239
      vertex 3.77038 -6.53049 0.317868
    endloop
  endfacet
  facet normal 0.406737 -0.913545 0
    outer loop
      vertex 2.33022 -7.17169 -1
      vertex 3.77038 -6.53049 -0.0999994
      vertex 2.33022 -7.17169 -0.0999994
    endloop
  endfacet
  facet normal 0.406737 -0.913545 0
    outer loop
      vertex 3.77038 -6.53049 -0.0999994
      vertex 2.33022 -7.17169 -1
      vertex 3.77038 -6.53049 -1
    endloop
  endfacet
  facet normal -0.207911 -0.978148 -2.40959e-09
    outer loop
      vertex -2.33022 -7.17169 61
      vertex -0.907519 -7.47409 0.361435
      vertex -0.788223 -7.49945 61
    endloop
  endfacet
  facet normal -0.207911 -0.978148 0
    outer loop
      vertex -0.907519 -7.47409 0.361435
      vertex -2.33022 -7.17169 61
      vertex -2.33022 -7.17169 0.32772
    endloop
  endfacet
  facet normal -0.207913 -0.978147 -0
    outer loop
      vertex -0.788223 -7.49945 61
      vertex -0.907519 -7.47409 0.361435
      vertex -0.788223 -7.49945 0.34319
    endloop
  endfacet
  facet normal -0.207911 -0.978148 0
    outer loop
      vertex -2.33022 -7.17169 -1
      vertex -0.788223 -7.49945 -0.0999994
      vertex -2.33022 -7.17169 -0.0999994
    endloop
  endfacet
  facet normal -0.207911 -0.978148 -0
    outer loop
      vertex -0.788223 -7.49945 -0.0999994
      vertex -2.33022 -7.17169 -1
      vertex -0.788223 -7.49945 -1
    endloop
  endfacet
  facet normal -0.743145 -0.669131 0
    outer loop
      vertex -5.04575 -5.60388 -1
      vertex -6.1006 -4.43235 -0.0999994
      vertex -6.1006 -4.43235 -1
    endloop
  endfacet
  facet normal -0.743145 -0.669131 0
    outer loop
      vertex -6.1006 -4.43235 -0.0999994
      vertex -5.04575 -5.60388 -1
      vertex -5.04575 -5.60388 -0.0999994
    endloop
  endfacet
  facet normal -0.743145 -0.669131 0
    outer loop
      vertex -5.68598 -4.89284 0.372357
      vertex -6.1006 -4.43235 61
      vertex -6.1006 -4.43235 0.315052
    endloop
  endfacet
  facet normal -0.743145 -0.669131 -1.55863e-09
    outer loop
      vertex -5.6136 -4.97322 0.38236
      vertex -6.1006 -4.43235 61
      vertex -5.68598 -4.89284 0.372357
    endloop
  endfacet
  facet normal -0.743144 -0.669132 -1.55878e-08
    outer loop
      vertex -5.04575 -5.60388 61
      vertex -5.6136 -4.97322 0.38236
      vertex -5.546 -5.0483 0.374179
    endloop
  endfacet
  facet normal -0.743145 -0.669131 -0
    outer loop
      vertex -5.04575 -5.60388 61
      vertex -5.546 -5.0483 0.374179
      vertex -5.04575 -5.60388 0.313643
    endloop
  endfacet
  facet normal -0.743145 -0.669131 7.66133e-10
    outer loop
      vertex -5.6136 -4.97322 0.38236
      vertex -5.04575 -5.60388 61
      vertex -6.1006 -4.43235 61
    endloop
  endfacet
  facet normal -0.866025 -0.5 0
    outer loop
      vertex -6.1006 -4.43235 -1
      vertex -6.88883 -3.0671 -0.0999994
      vertex -6.88883 -3.0671 -1
    endloop
  endfacet
  facet normal -0.866025 -0.5 0
    outer loop
      vertex -6.88883 -3.0671 -0.0999994
      vertex -6.1006 -4.43235 -1
      vertex -6.1006 -4.43235 -0.0999994
    endloop
  endfacet
  facet normal -0.866025 -0.5 0
    outer loop
      vertex -6.64582 -3.488 0.378186
      vertex -6.88883 -3.0671 61
      vertex -6.88883 -3.0671 0.322091
    endloop
  endfacet
  facet normal -0.866026 -0.5 -0
    outer loop
      vertex -6.1006 -4.43235 61
      vertex -6.64582 -3.488 0.378186
      vertex -6.1006 -4.43235 0.315052
    endloop
  endfacet
  facet normal -0.866025 -0.5 -1.47472e-09
    outer loop
      vertex -6.64582 -3.488 0.378186
      vertex -6.1006 -4.43235 61
      vertex -6.88883 -3.0671 61
    endloop
  endfacet
  facet normal -0.951056 -0.309018 0
    outer loop
      vertex -7.30071 -1.79946 0.368425
      vertex -7.37598 -1.56781 61
      vertex -7.37598 -1.56781 0.334753
    endloop
  endfacet
  facet normal -0.951057 -0.309016 4.2452e-08
    outer loop
      vertex -6.88883 -3.0671 61
      vertex -7.30071 -1.79946 0.368425
      vertex -7.25639 -1.93587 0.363439
    endloop
  endfacet
  facet normal -0.951056 -0.309018 -0
    outer loop
      vertex -6.88883 -3.0671 61
      vertex -7.25639 -1.93587 0.363439
      vertex -6.88883 -3.0671 0.322091
    endloop
  endfacet
  facet normal -0.951056 -0.309017 -2.77431e-09
    outer loop
      vertex -7.30071 -1.79946 0.368425
      vertex -6.88883 -3.0671 61
      vertex -7.37598 -1.56781 61
    endloop
  endfacet
  facet normal -0.951056 -0.309017 0
    outer loop
      vertex -6.88883 -3.0671 -1
      vertex -7.37598 -1.56781 -0.0999994
      vertex -7.37598 -1.56781 -1
    endloop
  endfacet
  facet normal -0.951056 -0.309017 0
    outer loop
      vertex -7.37598 -1.56781 -0.0999994
      vertex -6.88883 -3.0671 -1
      vertex -6.88883 -3.0671 -0.0999994
    endloop
  endfacet
  facet normal 0.743145 -0.66913 0
    outer loop
      vertex 5.41365 -5.19529 61
      vertex 5.04575 -5.60388 61
      vertex 5.41365 -5.19529 0.5
    endloop
  endfacet
  facet normal 0.743147 -0.669128 0
    outer loop
      vertex 6.08318 -4.45169 0.5
      vertex 6.1006 -4.43235 61
      vertex 6.08318 -4.45169 61
    endloop
  endfacet
  facet normal 0.743147 -0.669128 0
    outer loop
      vertex 6.1006 -4.43235 61
      vertex 6.08318 -4.45169 0.5
      vertex 6.1006 -4.43235 0.315052
    endloop
  endfacet
  facet normal 0.743145 -0.669131 -5.84807e-07
    outer loop
      vertex 6.08318 -4.45169 0.5
      vertex 5.68598 -4.89284 0.372357
      vertex 6.1006 -4.43235 0.315052
    endloop
  endfacet
  facet normal 0.743144 -0.669131 1.27388e-06
    outer loop
      vertex 5.41365 -5.19529 0.5
      vertex 5.68598 -4.89284 0.372357
      vertex 6.08318 -4.45169 0.5
    endloop
  endfacet
  facet normal 0.743145 -0.66913 4.5487e-06
    outer loop
      vertex 5.68598 -4.89284 0.372357
      vertex 5.41365 -5.19529 0.5
      vertex 5.6136 -4.97322 0.38236
    endloop
  endfacet
  facet normal 0.743144 -0.669132 1.43751e-08
    outer loop
      vertex 5.6136 -4.97322 0.38236
      vertex 5.41365 -5.19529 0.5
      vertex 5.546 -5.0483 0.374179
    endloop
  endfacet
  facet normal 0.743145 -0.669131 1.77892e-06
    outer loop
      vertex 5.41365 -5.19529 0.5
      vertex 5.04575 -5.60388 0.313643
      vertex 5.546 -5.0483 0.374179
    endloop
  endfacet
  facet normal 0.743145 -0.66913 0
    outer loop
      vertex 5.04575 -5.60388 0.313643
      vertex 5.41365 -5.19529 0.5
      vertex 5.04575 -5.60388 61
    endloop
  endfacet
  facet normal 0.743145 -0.669131 0
    outer loop
      vertex 5.04575 -5.60388 -0.0999994
      vertex 6.1006 -4.43235 -1
      vertex 6.1006 -4.43235 -0.0999994
    endloop
  endfacet
  facet normal 0.743145 -0.669131 0
    outer loop
      vertex 6.1006 -4.43235 -1
      vertex 5.04575 -5.60388 -0.0999994
      vertex 5.04575 -5.60388 -1
    endloop
  endfacet
  facet normal -0.406737 -0.913545 0
    outer loop
      vertex -3.77038 -6.53049 -1
      vertex -2.33022 -7.17169 -0.0999994
      vertex -3.77038 -6.53049 -0.0999994
    endloop
  endfacet
  facet normal -0.406737 -0.913545 -0
    outer loop
      vertex -2.33022 -7.17169 -0.0999994
      vertex -3.77038 -6.53049 -1
      vertex -2.33022 -7.17169 -1
    endloop
  endfacet
  facet normal -0.406737 -0.913545 2.5273e-09
    outer loop
      vertex -3.77038 -6.53049 61
      vertex -2.66358 -7.02327 0.374007
      vertex -2.33022 -7.17169 61
    endloop
  endfacet
  facet normal -0.406739 -0.913545 -3.27178e-08
    outer loop
      vertex -3.77038 -6.53049 61
      vertex -2.77729 -6.97264 0.368239
      vertex -2.66358 -7.02327 0.374007
    endloop
  endfacet
  facet normal -0.406737 -0.913545 0
    outer loop
      vertex -2.77729 -6.97264 0.368239
      vertex -3.77038 -6.53049 61
      vertex -3.77038 -6.53049 0.317868
    endloop
  endfacet
  facet normal -0.406737 -0.913545 5.55235e-10
    outer loop
      vertex -2.47852 -7.10566 0.348311
      vertex -2.33022 -7.17169 61
      vertex -2.66358 -7.02327 0.374007
    endloop
  endfacet
  facet normal -0.406737 -0.913545 -0
    outer loop
      vertex -2.33022 -7.17169 61
      vertex -2.47852 -7.10566 0.348311
      vertex -2.33022 -7.17169 0.32772
    endloop
  endfacet
  facet normal -0.587785 -0.809017 -3.00905e-09
    outer loop
      vertex -5.04575 -5.60388 61
      vertex -4.26142 -6.17373 0.38097
      vertex -3.77038 -6.53049 61
    endloop
  endfacet
  facet normal -0.587785 -0.809017 0
    outer loop
      vertex -4.26142 -6.17373 0.38097
      vertex -5.04575 -5.60388 61
      vertex -5.04575 -5.60388 0.313643
    endloop
  endfacet
  facet normal -0.587785 -0.809017 -0
    outer loop
      vertex -3.77038 -6.53049 61
      vertex -4.26142 -6.17373 0.38097
      vertex -3.77038 -6.53049 0.317868
    endloop
  endfacet
  facet normal -0.587785 -0.809017 0
    outer loop
      vertex -5.04575 -5.60388 -1
      vertex -3.77038 -6.53049 -0.0999994
      vertex -5.04575 -5.60388 -0.0999994
    endloop
  endfacet
  facet normal -0.587785 -0.809017 -0
    outer loop
      vertex -3.77038 -6.53049 -0.0999994
      vertex -5.04575 -5.60388 -1
      vertex -3.77038 -6.53049 -1
    endloop
  endfacet
  facet normal -0.579795 0.0703999 0.811715
    outer loop
      vertex -7.37722 1.55594 0.334892
      vertex -8.175 0 -0.0999994
      vertex -7.54076 0 0.353027
    endloop
  endfacet
  facet normal 0.579795 0.0703999 0.811715
    outer loop
      vertex 8.175 0 -0.0999994
      vertex 7.37722 1.55594 0.334892
      vertex 7.54076 0 0.353027
    endloop
  endfacet
  facet normal 0.579795 0.0704 0.811715
    outer loop
      vertex 7.93745 1.9564 -0.0999994
      vertex 7.37722 1.55594 0.334892
      vertex 8.175 0 -0.0999994
    endloop
  endfacet
  facet normal 0.579798 0.0703955 0.811714
    outer loop
      vertex 7.93745 1.9564 -0.0999994
      vertex 7.37598 1.56781 0.334753
      vertex 7.37722 1.55594 0.334892
    endloop
  endfacet
  facet normal 0.579795 0.0704003 0.811715
    outer loop
      vertex 7.37598 1.56781 0.334753
      vertex 7.93745 1.9564 -0.0999994
      vertex 7.30071 1.79946 0.368425
    endloop
  endfacet
  facet normal 0.546099 0.207108 0.811715
    outer loop
      vertex 7.2386 3.79911 -0.0999994
      vertex 6.88883 3.0671 0.322091
      vertex 7.25639 1.93587 0.363439
    endloop
  endfacet
  facet normal 0.546099 0.207108 0.811715
    outer loop
      vertex 6.88883 3.0671 0.322091
      vertex 7.2386 3.79911 -0.0999994
      vertex 6.64582 3.488 0.378186
    endloop
  endfacet
  facet normal 0.387299 0.437171 0.811715
    outer loop
      vertex 6.11907 5.42103 -0.0999994
      vertex 5.546 5.0483 0.374179
      vertex 5.6136 4.97322 0.38236
    endloop
  endfacet
  facet normal 0.387299 0.437171 0.811715
    outer loop
      vertex 5.546 5.0483 0.374179
      vertex 6.11907 5.42103 -0.0999994
      vertex 4.64393 6.72789 -0.0999994
    endloop
  endfacet
  facet normal -0.139773 -0.567082 0.811715
    outer loop
      vertex -2.33022 -7.17169 0.32772
      vertex -0.985387 -8.11539 -0.0999994
      vertex -0.907519 -7.47409 0.361435
    endloop
  endfacet
  facet normal -0.139772 -0.567081 0.811716
    outer loop
      vertex -0.985387 -8.11539 -0.0999994
      vertex -2.33022 -7.17169 0.32772
      vertex -2.47852 -7.10566 0.348311
    endloop
  endfacet
  facet normal 0.546099 -0.207108 0.811715
    outer loop
      vertex 6.88883 -3.0671 0.322091
      vertex 7.2386 -3.79911 -0.0999994
      vertex 7.25639 -1.93587 0.363439
    endloop
  endfacet
  facet normal 0.546099 -0.207108 0.811715
    outer loop
      vertex 7.2386 -3.79911 -0.0999994
      vertex 6.88883 -3.0671 0.322091
      vertex 6.64582 -3.488 0.378186
    endloop
  endfacet
  facet normal 5.07338e-07 0.584053 0.811715
    outer loop
      vertex 0.985387 8.11539 -0.0999994
      vertex 0.788223 7.49945 0.34319
      vertex 0.907519 7.47409 0.361435
    endloop
  endfacet
  facet normal 0 0.584053 0.811715
    outer loop
      vertex 0.985387 8.11539 -0.0999994
      vertex -0.788223 7.49945 0.34319
      vertex 0.788223 7.49945 0.34319
    endloop
  endfacet
  facet normal -0 0.584053 0.811715
    outer loop
      vertex -0.985387 8.11539 -0.0999994
      vertex -0.788223 7.49945 0.34319
      vertex 0.985387 8.11539 -0.0999994
    endloop
  endfacet
  facet normal -5.07338e-07 0.584053 0.811715
    outer loop
      vertex -0.788223 7.49945 0.34319
      vertex -0.985387 8.11539 -0.0999994
      vertex -0.907519 7.47409 0.361435
    endloop
  endfacet
  facet normal 0.5461 0.207107 0.811715
    outer loop
      vertex 7.93745 1.9564 -0.0999994
      vertex 7.25639 1.93587 0.363439
      vertex 7.30071 1.79946 0.368425
    endloop
  endfacet
  facet normal 0.5461 0.207108 0.811715
    outer loop
      vertex 7.25639 1.93587 0.363439
      vertex 7.93745 1.9564 -0.0999994
      vertex 7.2386 3.79911 -0.0999994
    endloop
  endfacet
  facet normal -0.387299 0.437171 0.811715
    outer loop
      vertex -4.64393 6.72789 -0.0999994
      vertex -5.04575 5.60388 0.313643
      vertex -4.26142 6.17373 0.38097
    endloop
  endfacet
  facet normal -0.387299 0.437171 0.811715
    outer loop
      vertex -5.04575 5.60388 0.313643
      vertex -4.64393 6.72789 -0.0999994
      vertex -5.546 5.0483 0.374179
    endloop
  endfacet
  facet normal -0.139773 0.567083 0.811715
    outer loop
      vertex -2.89889 7.64376 -0.0999994
      vertex -2.47852 7.10566 0.348311
      vertex -0.985387 8.11539 -0.0999994
    endloop
  endfacet
  facet normal -0.139773 0.567083 0.811715
    outer loop
      vertex -2.47852 7.10566 0.348311
      vertex -2.89889 7.64376 -0.0999994
      vertex -2.66358 7.02327 0.374007
    endloop
  endfacet
  facet normal -0.579795 -0.0704003 0.811715
    outer loop
      vertex -7.37598 -1.56781 0.334753
      vertex -7.93745 -1.9564 -0.0999994
      vertex -7.30071 -1.79946 0.368425
    endloop
  endfacet
  facet normal -0.579798 -0.0703955 0.811714
    outer loop
      vertex -7.37722 -1.55594 0.334892
      vertex -7.93745 -1.9564 -0.0999994
      vertex -7.37598 -1.56781 0.334753
    endloop
  endfacet
  facet normal -0.579795 -0.0704 0.811715
    outer loop
      vertex -7.93745 -1.9564 -0.0999994
      vertex -7.37722 -1.55594 0.334892
      vertex -8.175 0 -0.0999994
    endloop
  endfacet
  facet normal 0 0 -1
    outer loop
      vertex 7.37598 -1.56781 -0.0999994
      vertex 8.175 0 -0.0999994
      vertex 7.93745 -1.9564 -0.0999994
    endloop
  endfacet
  facet normal 0 0 -1
    outer loop
      vertex 7.37598 1.56781 -0.0999994
      vertex 8.175 0 -0.0999994
      vertex 7.54076 0 -0.0999994
    endloop
  endfacet
  facet normal -0 0 -1
    outer loop
      vertex 8.175 0 -0.0999994
      vertex 7.37598 -1.56781 -0.0999994
      vertex 7.54076 0 -0.0999994
    endloop
  endfacet
  facet normal 0 0 -1
    outer loop
      vertex 6.88883 -3.0671 -0.0999994
      vertex 7.93745 -1.9564 -0.0999994
      vertex 7.2386 -3.79911 -0.0999994
    endloop
  endfacet
  facet normal -0 0 -1
    outer loop
      vertex 7.93745 -1.9564 -0.0999994
      vertex 6.88883 -3.0671 -0.0999994
      vertex 7.37598 -1.56781 -0.0999994
    endloop
  endfacet
  facet normal 0 0 -1
    outer loop
      vertex 6.1006 -4.43235 -0.0999994
      vertex 7.2386 -3.79911 -0.0999994
      vertex 6.11907 -5.42103 -0.0999994
    endloop
  endfacet
  facet normal -0 0 -1
    outer loop
      vertex 7.2386 -3.79911 -0.0999994
      vertex 6.1006 -4.43235 -0.0999994
      vertex 6.88883 -3.0671 -0.0999994
    endloop
  endfacet
  facet normal -0 0 -1
    outer loop
      vertex 6.11907 -5.42103 -0.0999994
      vertex 5.04575 -5.60388 -0.0999994
      vertex 6.1006 -4.43235 -0.0999994
    endloop
  endfacet
  facet normal 0 0 -1
    outer loop
      vertex 4.64393 -6.72789 -0.0999994
      vertex 5.04575 -5.60388 -0.0999994
      vertex 6.11907 -5.42103 -0.0999994
    endloop
  endfacet
  facet normal 0 0 -1
    outer loop
      vertex 4.64393 -6.72789 -0.0999994
      vertex 3.77038 -6.53049 -0.0999994
      vertex 5.04575 -5.60388 -0.0999994
    endloop
  endfacet
  facet normal 0 0 -1
    outer loop
      vertex 2.89889 -7.64376 -0.0999994
      vertex 3.77038 -6.53049 -0.0999994
      vertex 4.64393 -6.72789 -0.0999994
    endloop
  endfacet
  facet normal 0 0 -1
    outer loop
      vertex 2.89889 -7.64376 -0.0999994
      vertex 2.33022 -7.17169 -0.0999994
      vertex 3.77038 -6.53049 -0.0999994
    endloop
  endfacet
  facet normal 0 0 -1
    outer loop
      vertex 0.985387 -8.11539 -0.0999994
      vertex 2.33022 -7.17169 -0.0999994
      vertex 2.89889 -7.64376 -0.0999994
    endloop
  endfacet
  facet normal 0 0 -1
    outer loop
      vertex 0.985387 -8.11539 -0.0999994
      vertex 0.788223 -7.49945 -0.0999994
      vertex 2.33022 -7.17169 -0.0999994
    endloop
  endfacet
  facet normal 0 0 -1
    outer loop
      vertex 0.985387 -8.11539 -0.0999994
      vertex -0.788223 -7.49945 -0.0999994
      vertex 0.788223 -7.49945 -0.0999994
    endloop
  endfacet
  facet normal 0 0 -1
    outer loop
      vertex -0.985387 -8.11539 -0.0999994
      vertex -0.788223 -7.49945 -0.0999994
      vertex 0.985387 -8.11539 -0.0999994
    endloop
  endfacet
  facet normal 0 0 -1
    outer loop
      vertex -0.985387 -8.11539 -0.0999994
      vertex -2.33022 -7.17169 -0.0999994
      vertex -0.788223 -7.49945 -0.0999994
    endloop
  endfacet
  facet normal 0 0 -1
    outer loop
      vertex -2.89889 -7.64376 -0.0999994
      vertex -2.33022 -7.17169 -0.0999994
      vertex -0.985387 -8.11539 -0.0999994
    endloop
  endfacet
  facet normal 0 0 -1
    outer loop
      vertex -2.89889 -7.64376 -0.0999994
      vertex -3.77038 -6.53049 -0.0999994
      vertex -2.33022 -7.17169 -0.0999994
    endloop
  endfacet
  facet normal 0 0 -1
    outer loop
      vertex -4.64393 -6.72789 -0.0999994
      vertex -3.77038 -6.53049 -0.0999994
      vertex -2.89889 -7.64376 -0.0999994
    endloop
  endfacet
  facet normal 0 0 -1
    outer loop
      vertex -4.64393 -6.72789 -0.0999994
      vertex -5.04575 -5.60388 -0.0999994
      vertex -3.77038 -6.53049 -0.0999994
    endloop
  endfacet
  facet normal 0 0 -1
    outer loop
      vertex -6.11907 -5.42103 -0.0999994
      vertex -5.04575 -5.60388 -0.0999994
      vertex -4.64393 -6.72789 -0.0999994
    endloop
  endfacet
  facet normal 0 0 -1
    outer loop
      vertex -5.04575 -5.60388 -0.0999994
      vertex -6.11907 -5.42103 -0.0999994
      vertex -6.1006 -4.43235 -0.0999994
    endloop
  endfacet
  facet normal 0 0 -1
    outer loop
      vertex -7.2386 -3.79911 -0.0999994
      vertex -6.1006 -4.43235 -0.0999994
      vertex -6.11907 -5.42103 -0.0999994
    endloop
  endfacet
  facet normal 0 0 -1
    outer loop
      vertex -6.1006 -4.43235 -0.0999994
      vertex -7.2386 -3.79911 -0.0999994
      vertex -6.88883 -3.0671 -0.0999994
    endloop
  endfacet
  facet normal 0 0 -1
    outer loop
      vertex -7.93745 -1.9564 -0.0999994
      vertex -6.88883 -3.0671 -0.0999994
      vertex -7.2386 -3.79911 -0.0999994
    endloop
  endfacet
  facet normal 0 0 -1
    outer loop
      vertex -6.88883 -3.0671 -0.0999994
      vertex -7.93745 -1.9564 -0.0999994
      vertex -7.37598 -1.56781 -0.0999994
    endloop
  endfacet
  facet normal 0 0 -1
    outer loop
      vertex -8.175 0 -0.0999994
      vertex -7.37598 -1.56781 -0.0999994
      vertex -7.93745 -1.9564 -0.0999994
    endloop
  endfacet
  facet normal 0 0 -1
    outer loop
      vertex 8.175 0 -0.0999994
      vertex 7.37598 1.56781 -0.0999994
      vertex 7.93745 1.9564 -0.0999994
    endloop
  endfacet
  facet normal 0 0 -1
    outer loop
      vertex 6.88883 3.0671 -0.0999994
      vertex 7.93745 1.9564 -0.0999994
      vertex 7.37598 1.56781 -0.0999994
    endloop
  endfacet
  facet normal 0 0 -1
    outer loop
      vertex 7.93745 1.9564 -0.0999994
      vertex 6.88883 3.0671 -0.0999994
      vertex 7.2386 3.79911 -0.0999994
    endloop
  endfacet
  facet normal 0 0 -1
    outer loop
      vertex 6.1006 4.43235 -0.0999994
      vertex 7.2386 3.79911 -0.0999994
      vertex 6.88883 3.0671 -0.0999994
    endloop
  endfacet
  facet normal 0 0 -1
    outer loop
      vertex 7.2386 3.79911 -0.0999994
      vertex 6.1006 4.43235 -0.0999994
      vertex 6.11907 5.42103 -0.0999994
    endloop
  endfacet
  facet normal 0 0 -1
    outer loop
      vertex 5.04575 5.60388 -0.0999994
      vertex 6.11907 5.42103 -0.0999994
      vertex 6.1006 4.43235 -0.0999994
    endloop
  endfacet
  facet normal 0 0 -1
    outer loop
      vertex 5.04575 5.60388 -0.0999994
      vertex 4.64393 6.72789 -0.0999994
      vertex 6.11907 5.42103 -0.0999994
    endloop
  endfacet
  facet normal 0 0 -1
    outer loop
      vertex 3.77038 6.53049 -0.0999994
      vertex 4.64393 6.72789 -0.0999994
      vertex 5.04575 5.60388 -0.0999994
    endloop
  endfacet
  facet normal 0 0 -1
    outer loop
      vertex 3.77038 6.53049 -0.0999994
      vertex 2.89889 7.64376 -0.0999994
      vertex 4.64393 6.72789 -0.0999994
    endloop
  endfacet
  facet normal 0 0 -1
    outer loop
      vertex 2.33022 7.17169 -0.0999994
      vertex 2.89889 7.64376 -0.0999994
      vertex 3.77038 6.53049 -0.0999994
    endloop
  endfacet
  facet normal 0 0 -1
    outer loop
      vertex 2.33022 7.17169 -0.0999994
      vertex 0.985387 8.11539 -0.0999994
      vertex 2.89889 7.64376 -0.0999994
    endloop
  endfacet
  facet normal 0 0 -1
    outer loop
      vertex 0.788223 7.49945 -0.0999994
      vertex 0.985387 8.11539 -0.0999994
      vertex 2.33022 7.17169 -0.0999994
    endloop
  endfacet
  facet normal 0 0 -1
    outer loop
      vertex -0.788223 7.49945 -0.0999994
      vertex 0.985387 8.11539 -0.0999994
      vertex 0.788223 7.49945 -0.0999994
    endloop
  endfacet
  facet normal 0 0 -1
    outer loop
      vertex -0.788223 7.49945 -0.0999994
      vertex -0.985387 8.11539 -0.0999994
      vertex 0.985387 8.11539 -0.0999994
    endloop
  endfacet
  facet normal 0 0 -1
    outer loop
      vertex -2.33022 7.17169 -0.0999994
      vertex -0.985387 8.11539 -0.0999994
      vertex -0.788223 7.49945 -0.0999994
    endloop
  endfacet
  facet normal 0 0 -1
    outer loop
      vertex -2.33022 7.17169 -0.0999994
      vertex -2.89889 7.64376 -0.0999994
      vertex -0.985387 8.11539 -0.0999994
    endloop
  endfacet
  facet normal 0 0 -1
    outer loop
      vertex -3.77038 6.53049 -0.0999994
      vertex -2.89889 7.64376 -0.0999994
      vertex -2.33022 7.17169 -0.0999994
    endloop
  endfacet
  facet normal 0 0 -1
    outer loop
      vertex -3.77038 6.53049 -0.0999994
      vertex -4.64393 6.72789 -0.0999994
      vertex -2.89889 7.64376 -0.0999994
    endloop
  endfacet
  facet normal 0 0 -1
    outer loop
      vertex -5.04575 5.60388 -0.0999994
      vertex -4.64393 6.72789 -0.0999994
      vertex -3.77038 6.53049 -0.0999994
    endloop
  endfacet
  facet normal 0 0 -1
    outer loop
      vertex -6.11907 5.42103 -0.0999994
      vertex -5.04575 5.60388 -0.0999994
      vertex -6.1006 4.43235 -0.0999994
    endloop
  endfacet
  facet normal -0 0 -1
    outer loop
      vertex -5.04575 5.60388 -0.0999994
      vertex -6.11907 5.42103 -0.0999994
      vertex -4.64393 6.72789 -0.0999994
    endloop
  endfacet
  facet normal 0 0 -1
    outer loop
      vertex -7.2386 3.79911 -0.0999994
      vertex -6.1006 4.43235 -0.0999994
      vertex -6.88883 3.0671 -0.0999994
    endloop
  endfacet
  facet normal -0 0 -1
    outer loop
      vertex -6.1006 4.43235 -0.0999994
      vertex -7.2386 3.79911 -0.0999994
      vertex -6.11907 5.42103 -0.0999994
    endloop
  endfacet
  facet normal 0 0 -1
    outer loop
      vertex -7.93745 1.9564 -0.0999994
      vertex -6.88883 3.0671 -0.0999994
      vertex -7.37598 1.56781 -0.0999994
    endloop
  endfacet
  facet normal 0 0 -1
    outer loop
      vertex -8.175 0 -0.0999994
      vertex -7.37598 1.56781 -0.0999994
      vertex -7.54076 0 -0.0999994
    endloop
  endfacet
  facet normal 0 0 -1
    outer loop
      vertex -7.37598 -1.56781 -0.0999994
      vertex -8.175 0 -0.0999994
      vertex -7.54076 0 -0.0999994
    endloop
  endfacet
  facet normal -0 0 -1
    outer loop
      vertex -6.88883 3.0671 -0.0999994
      vertex -7.93745 1.9564 -0.0999994
      vertex -7.2386 3.79911 -0.0999994
    endloop
  endfacet
  facet normal -0 0 -1
    outer loop
      vertex -7.37598 1.56781 -0.0999994
      vertex -8.175 0 -0.0999994
      vertex -7.93745 1.9564 -0.0999994
    endloop
  endfacet
  facet normal -0.480667 -0.33178 0.811715
    outer loop
      vertex -5.68598 -4.89284 0.372357
      vertex -6.11907 -5.42103 -0.0999994
      vertex -5.6136 -4.97322 0.38236
    endloop
  endfacet
  facet normal -0.480667 -0.33178 0.811715
    outer loop
      vertex -6.11907 -5.42103 -0.0999994
      vertex -5.68598 -4.89284 0.372357
      vertex -7.2386 -3.79911 -0.0999994
    endloop
  endfacet
  facet normal -0.387299 -0.437171 0.811715
    outer loop
      vertex -5.04575 -5.60388 0.313643
      vertex -4.64393 -6.72789 -0.0999994
      vertex -4.26142 -6.17373 0.38097
    endloop
  endfacet
  facet normal -0.387299 -0.437171 0.811715
    outer loop
      vertex -4.64393 -6.72789 -0.0999994
      vertex -5.04575 -5.60388 0.313643
      vertex -5.546 -5.0483 0.374179
    endloop
  endfacet
  facet normal 0.387299 -0.437171 0.811715
    outer loop
      vertex 5.04575 -5.60388 0.313643
      vertex 4.64393 -6.72789 -0.0999994
      vertex 5.546 -5.0483 0.374179
    endloop
  endfacet
  facet normal 0.387299 -0.437171 0.811715
    outer loop
      vertex 4.64393 -6.72789 -0.0999994
      vertex 5.04575 -5.60388 0.313643
      vertex 4.26142 -6.17373 0.38097
    endloop
  endfacet
  facet normal 5.07338e-07 -0.584053 0.811715
    outer loop
      vertex 0.788223 -7.49945 0.34319
      vertex 0.985387 -8.11539 -0.0999994
      vertex 0.907519 -7.47409 0.361435
    endloop
  endfacet
  facet normal 0 -0.584053 0.811715
    outer loop
      vertex -0.788223 -7.49945 0.34319
      vertex 0.985387 -8.11539 -0.0999994
      vertex 0.788223 -7.49945 0.34319
    endloop
  endfacet
  facet normal -5.07338e-07 -0.584053 0.811715
    outer loop
      vertex -0.985387 -8.11539 -0.0999994
      vertex -0.788223 -7.49945 0.34319
      vertex -0.907519 -7.47409 0.361435
    endloop
  endfacet
  facet normal 0 -0.584053 0.811715
    outer loop
      vertex -0.788223 -7.49945 0.34319
      vertex -0.985387 -8.11539 -0.0999994
      vertex 0.985387 -8.11539 -0.0999994
    endloop
  endfacet
  facet normal 0.5461 -0.207107 0.811715
    outer loop
      vertex 7.25639 -1.93587 0.363439
      vertex 7.93745 -1.9564 -0.0999994
      vertex 7.30071 -1.79946 0.368425
    endloop
  endfacet
  facet normal 0.5461 -0.207108 0.811715
    outer loop
      vertex 7.93745 -1.9564 -0.0999994
      vertex 7.25639 -1.93587 0.363439
      vertex 7.2386 -3.79911 -0.0999994
    endloop
  endfacet
  facet normal 0.387299 0.437171 0.811715
    outer loop
      vertex 4.64393 6.72789 -0.0999994
      vertex 5.04575 5.60388 0.313643
      vertex 5.546 5.0483 0.374179
    endloop
  endfacet
  facet normal 0.387299 0.437171 0.811715
    outer loop
      vertex 5.04575 5.60388 0.313643
      vertex 4.64393 6.72789 -0.0999994
      vertex 4.26142 6.17373 0.38097
    endloop
  endfacet
  facet normal -0.387299 0.437171 0.811715
    outer loop
      vertex -6.11907 5.42103 -0.0999994
      vertex -5.546 5.0483 0.374179
      vertex -4.64393 6.72789 -0.0999994
    endloop
  endfacet
  facet normal -0.387299 0.437171 0.811715
    outer loop
      vertex -5.546 5.0483 0.374179
      vertex -6.11907 5.42103 -0.0999994
      vertex -5.6136 4.97322 0.38236
    endloop
  endfacet
  facet normal -0.480667 0.33178 0.811715
    outer loop
      vertex -6.11907 5.42103 -0.0999994
      vertex -5.68598 4.89284 0.372357
      vertex -5.6136 4.97322 0.38236
    endloop
  endfacet
  facet normal -0.480667 0.33178 0.811715
    outer loop
      vertex -5.68598 4.89284 0.372357
      vertex -6.11907 5.42103 -0.0999994
      vertex -7.2386 3.79911 -0.0999994
    endloop
  endfacet
  facet normal -0.546099 0.207108 0.811715
    outer loop
      vertex -7.2386 3.79911 -0.0999994
      vertex -6.88883 3.0671 0.322091
      vertex -6.64582 3.488 0.378186
    endloop
  endfacet
  facet normal -0.546099 0.207108 0.811715
    outer loop
      vertex -6.88883 3.0671 0.322091
      vertex -7.2386 3.79911 -0.0999994
      vertex -7.25639 1.93587 0.363439
    endloop
  endfacet
  facet normal -0.5461 -0.207107 0.811715
    outer loop
      vertex -7.93745 -1.9564 -0.0999994
      vertex -7.25639 -1.93587 0.363439
      vertex -7.30071 -1.79946 0.368425
    endloop
  endfacet
  facet normal -0.5461 -0.207108 0.811715
    outer loop
      vertex -7.25639 -1.93587 0.363439
      vertex -7.93745 -1.9564 -0.0999994
      vertex -7.2386 -3.79911 -0.0999994
    endloop
  endfacet
  facet normal -0.480667 -0.33178 0.811715
    outer loop
      vertex -6.1006 -4.43235 0.315052
      vertex -7.2386 -3.79911 -0.0999994
      vertex -5.68598 -4.89284 0.372357
    endloop
  endfacet
  facet normal -0.480667 -0.33178 0.811715
    outer loop
      vertex -7.2386 -3.79911 -0.0999994
      vertex -6.1006 -4.43235 0.315052
      vertex -6.64582 -3.488 0.378186
    endloop
  endfacet
  facet normal -0.387299 -0.437171 0.811715
    outer loop
      vertex -6.11907 -5.42103 -0.0999994
      vertex -5.546 -5.0483 0.374179
      vertex -5.6136 -4.97322 0.38236
    endloop
  endfacet
  facet normal -0.387299 -0.437171 0.811715
    outer loop
      vertex -5.546 -5.0483 0.374179
      vertex -6.11907 -5.42103 -0.0999994
      vertex -4.64393 -6.72789 -0.0999994
    endloop
  endfacet
  facet normal -0.579795 -0.0703999 0.811715
    outer loop
      vertex -7.54076 0 0.353027
      vertex -8.175 0 -0.0999994
      vertex -7.37722 -1.55594 0.334892
    endloop
  endfacet
  facet normal 0.271423 -0.517154 0.811715
    outer loop
      vertex 2.77729 -6.97264 0.368239
      vertex 2.89889 -7.64376 -0.0999994
      vertex 4.64393 -6.72789 -0.0999994
    endloop
  endfacet
  facet normal 0.271424 -0.517154 0.811715
    outer loop
      vertex 2.89889 -7.64376 -0.0999994
      vertex 2.77729 -6.97264 0.368239
      vertex 2.66358 -7.02327 0.374007
    endloop
  endfacet
  facet normal 0.480667 -0.33178 0.811715
    outer loop
      vertex 5.68598 -4.89284 0.372357
      vertex 6.11907 -5.42103 -0.0999994
      vertex 7.2386 -3.79911 -0.0999994
    endloop
  endfacet
  facet normal 0.480667 -0.33178 0.811715
    outer loop
      vertex 6.11907 -5.42103 -0.0999994
      vertex 5.68598 -4.89284 0.372357
      vertex 5.6136 -4.97322 0.38236
    endloop
  endfacet
  facet normal 0.387299 -0.437171 0.811715
    outer loop
      vertex 5.546 -5.0483 0.374179
      vertex 6.11907 -5.42103 -0.0999994
      vertex 5.6136 -4.97322 0.38236
    endloop
  endfacet
  facet normal 0.387299 -0.437171 0.811715
    outer loop
      vertex 6.11907 -5.42103 -0.0999994
      vertex 5.546 -5.0483 0.374179
      vertex 4.64393 -6.72789 -0.0999994
    endloop
  endfacet
  facet normal 0.579795 -0.0704 0.811715
    outer loop
      vertex 7.37722 -1.55594 0.334892
      vertex 7.93745 -1.9564 -0.0999994
      vertex 8.175 0 -0.0999994
    endloop
  endfacet
  facet normal 0.579798 -0.0703955 0.811714
    outer loop
      vertex 7.37598 -1.56781 0.334753
      vertex 7.93745 -1.9564 -0.0999994
      vertex 7.37722 -1.55594 0.334892
    endloop
  endfacet
  facet normal 0.579795 -0.0704003 0.811715
    outer loop
      vertex 7.93745 -1.9564 -0.0999994
      vertex 7.37598 -1.56781 0.334753
      vertex 7.30071 -1.79946 0.368425
    endloop
  endfacet
  facet normal 0.579795 -0.0703999 0.811715
    outer loop
      vertex 7.54076 0 0.353027
      vertex 7.37722 -1.55594 0.334892
      vertex 8.175 0 -0.0999994
    endloop
  endfacet
  facet normal 0.480667 0.33178 0.811715
    outer loop
      vertex 7.2386 3.79911 -0.0999994
      vertex 6.1006 4.43235 0.315052
      vertex 6.64582 3.488 0.378186
    endloop
  endfacet
  facet normal 0.480667 0.33178 0.811715
    outer loop
      vertex 6.1006 4.43235 0.315052
      vertex 7.2386 3.79911 -0.0999994
      vertex 5.68598 4.89284 0.372357
    endloop
  endfacet
  facet normal 0.480667 0.33178 0.811715
    outer loop
      vertex 6.11907 5.42103 -0.0999994
      vertex 5.68598 4.89284 0.372357
      vertex 7.2386 3.79911 -0.0999994
    endloop
  endfacet
  facet normal 0.480667 0.33178 0.811715
    outer loop
      vertex 5.68598 4.89284 0.372357
      vertex 6.11907 5.42103 -0.0999994
      vertex 5.6136 4.97322 0.38236
    endloop
  endfacet
  facet normal 0.271423 0.517154 0.811715
    outer loop
      vertex 4.64393 6.72789 -0.0999994
      vertex 3.77038 6.53049 0.317868
      vertex 4.26142 6.17373 0.38097
    endloop
  endfacet
  facet normal 0.271423 0.517154 0.811715
    outer loop
      vertex 3.77038 6.53049 0.317868
      vertex 4.64393 6.72789 -0.0999994
      vertex 2.77729 6.97264 0.368239
    endloop
  endfacet
  facet normal -0.5461 0.207108 0.811715
    outer loop
      vertex -7.93745 1.9564 -0.0999994
      vertex -7.25639 1.93587 0.363439
      vertex -7.2386 3.79911 -0.0999994
    endloop
  endfacet
  facet normal -0.5461 0.207107 0.811715
    outer loop
      vertex -7.25639 1.93587 0.363439
      vertex -7.93745 1.9564 -0.0999994
      vertex -7.30071 1.79946 0.368425
    endloop
  endfacet
  facet normal -0.579795 0.0704003 0.811715
    outer loop
      vertex -7.93745 1.9564 -0.0999994
      vertex -7.37598 1.56781 0.334753
      vertex -7.30071 1.79946 0.368425
    endloop
  endfacet
  facet normal -0.579798 0.0703955 0.811714
    outer loop
      vertex -7.93745 1.9564 -0.0999994
      vertex -7.37722 1.55594 0.334892
      vertex -7.37598 1.56781 0.334753
    endloop
  endfacet
  facet normal -0.579795 0.0704 0.811715
    outer loop
      vertex -7.37722 1.55594 0.334892
      vertex -7.93745 1.9564 -0.0999994
      vertex -8.175 0 -0.0999994
    endloop
  endfacet
  facet normal -0.271424 0.517154 0.811715
    outer loop
      vertex -2.89889 7.64376 -0.0999994
      vertex -2.77729 6.97264 0.368239
      vertex -2.66358 7.02327 0.374007
    endloop
  endfacet
  facet normal -0.271423 0.517154 0.811715
    outer loop
      vertex -2.77729 6.97264 0.368239
      vertex -2.89889 7.64376 -0.0999994
      vertex -4.64393 6.72789 -0.0999994
    endloop
  endfacet
  facet normal -0.271423 0.517154 0.811715
    outer loop
      vertex -3.77038 6.53049 0.317868
      vertex -4.64393 6.72789 -0.0999994
      vertex -4.26142 6.17373 0.38097
    endloop
  endfacet
  facet normal -0.271423 0.517154 0.811715
    outer loop
      vertex -4.64393 6.72789 -0.0999994
      vertex -3.77038 6.53049 0.317868
      vertex -2.77729 6.97264 0.368239
    endloop
  endfacet
  facet normal -0.546099 -0.207108 0.811715
    outer loop
      vertex -6.88883 -3.0671 0.322091
      vertex -7.2386 -3.79911 -0.0999994
      vertex -6.64582 -3.488 0.378186
    endloop
  endfacet
  facet normal -0.546099 -0.207108 0.811715
    outer loop
      vertex -7.2386 -3.79911 -0.0999994
      vertex -6.88883 -3.0671 0.322091
      vertex -7.25639 -1.93587 0.363439
    endloop
  endfacet
  facet normal 0.271423 -0.517154 0.811715
    outer loop
      vertex 3.77038 -6.53049 0.317868
      vertex 4.64393 -6.72789 -0.0999994
      vertex 4.26142 -6.17373 0.38097
    endloop
  endfacet
  facet normal 0.271423 -0.517154 0.811715
    outer loop
      vertex 4.64393 -6.72789 -0.0999994
      vertex 3.77038 -6.53049 0.317868
      vertex 2.77729 -6.97264 0.368239
    endloop
  endfacet
  facet normal 0.139772 -0.567081 0.811716
    outer loop
      vertex 2.33022 -7.17169 0.32772
      vertex 0.985387 -8.11539 -0.0999994
      vertex 2.47852 -7.10566 0.348311
    endloop
  endfacet
  facet normal 0.139773 -0.567082 0.811715
    outer loop
      vertex 0.985387 -8.11539 -0.0999994
      vertex 2.33022 -7.17169 0.32772
      vertex 0.907519 -7.47409 0.361435
    endloop
  endfacet
  facet normal 0.139773 -0.567083 0.811715
    outer loop
      vertex 2.47852 -7.10566 0.348311
      vertex 2.89889 -7.64376 -0.0999994
      vertex 2.66358 -7.02327 0.374007
    endloop
  endfacet
  facet normal 0.139773 -0.567083 0.811715
    outer loop
      vertex 2.89889 -7.64376 -0.0999994
      vertex 2.47852 -7.10566 0.348311
      vertex 0.985387 -8.11539 -0.0999994
    endloop
  endfacet
  facet normal 0.480667 -0.33178 0.811715
    outer loop
      vertex 6.1006 -4.43235 0.315052
      vertex 7.2386 -3.79911 -0.0999994
      vertex 6.64582 -3.488 0.378186
    endloop
  endfacet
  facet normal 0.480667 -0.33178 0.811715
    outer loop
      vertex 7.2386 -3.79911 -0.0999994
      vertex 6.1006 -4.43235 0.315052
      vertex 5.68598 -4.89284 0.372357
    endloop
  endfacet
  facet normal 0.139773 0.567083 0.811715
    outer loop
      vertex 2.89889 7.64376 -0.0999994
      vertex 2.47852 7.10566 0.348311
      vertex 2.66358 7.02327 0.374007
    endloop
  endfacet
  facet normal 0.139773 0.567083 0.811715
    outer loop
      vertex 2.47852 7.10566 0.348311
      vertex 2.89889 7.64376 -0.0999994
      vertex 0.985387 8.11539 -0.0999994
    endloop
  endfacet
  facet normal 0.271423 0.517154 0.811715
    outer loop
      vertex 2.89889 7.64376 -0.0999994
      vertex 2.77729 6.97264 0.368239
      vertex 4.64393 6.72789 -0.0999994
    endloop
  endfacet
  facet normal 0.271424 0.517154 0.811715
    outer loop
      vertex 2.77729 6.97264 0.368239
      vertex 2.89889 7.64376 -0.0999994
      vertex 2.66358 7.02327 0.374007
    endloop
  endfacet
  facet normal 0.139772 0.567081 0.811716
    outer loop
      vertex 0.985387 8.11539 -0.0999994
      vertex 2.33022 7.17169 0.32772
      vertex 2.47852 7.10566 0.348311
    endloop
  endfacet
  facet normal 0.139773 0.567082 0.811715
    outer loop
      vertex 2.33022 7.17169 0.32772
      vertex 0.985387 8.11539 -0.0999994
      vertex 0.907519 7.47409 0.361435
    endloop
  endfacet
  facet normal -0.480667 0.33178 0.811715
    outer loop
      vertex -6.1006 4.43235 0.315052
      vertex -7.2386 3.79911 -0.0999994
      vertex -6.64582 3.488 0.378186
    endloop
  endfacet
  facet normal -0.480667 0.33178 0.811715
    outer loop
      vertex -7.2386 3.79911 -0.0999994
      vertex -6.1006 4.43235 0.315052
      vertex -5.68598 4.89284 0.372357
    endloop
  endfacet
  facet normal -0.139773 0.567082 0.811715
    outer loop
      vertex -0.985387 8.11539 -0.0999994
      vertex -2.33022 7.17169 0.32772
      vertex -0.907519 7.47409 0.361435
    endloop
  endfacet
  facet normal -0.139772 0.567081 0.811716
    outer loop
      vertex -2.33022 7.17169 0.32772
      vertex -0.985387 8.11539 -0.0999994
      vertex -2.47852 7.10566 0.348311
    endloop
  endfacet
  facet normal -0.271424 -0.517154 0.811715
    outer loop
      vertex -2.77729 -6.97264 0.368239
      vertex -2.89889 -7.64376 -0.0999994
      vertex -2.66358 -7.02327 0.374007
    endloop
  endfacet
  facet normal -0.271423 -0.517154 0.811715
    outer loop
      vertex -2.89889 -7.64376 -0.0999994
      vertex -2.77729 -6.97264 0.368239
      vertex -4.64393 -6.72789 -0.0999994
    endloop
  endfacet
  facet normal -0.139773 -0.567083 0.811715
    outer loop
      vertex -2.89889 -7.64376 -0.0999994
      vertex -2.47852 -7.10566 0.348311
      vertex -2.66358 -7.02327 0.374007
    endloop
  endfacet
  facet normal -0.139773 -0.567083 0.811715
    outer loop
      vertex -2.47852 -7.10566 0.348311
      vertex -2.89889 -7.64376 -0.0999994
      vertex -0.985387 -8.11539 -0.0999994
    endloop
  endfacet
  facet normal -0.271423 -0.517154 0.811715
    outer loop
      vertex -3.77038 -6.53049 0.317868
      vertex -4.64393 -6.72789 -0.0999994
      vertex -2.77729 -6.97264 0.368239
    endloop
  endfacet
  facet normal -0.271423 -0.517154 0.811715
    outer loop
      vertex -4.64393 -6.72789 -0.0999994
      vertex -3.77038 -6.53049 0.317868
      vertex -4.26142 -6.17373 0.38097
    endloop
  endfacet
  facet normal -0.766044 0.642788 0
    outer loop
      vertex 3.18326 -3.32378 61
      vertex 3.82605 -2.55773 62.5
      vertex 3.82605 -2.55773 61
    endloop
  endfacet
  facet normal -0.766044 0.642788 0
    outer loop
      vertex 3.82605 -2.55773 62.5
      vertex 3.18326 -3.32378 61
      vertex 3.18326 -3.32378 62.5
    endloop
  endfacet
  facet normal 0 0 1
    outer loop
      vertex 3.82605 -2.55773 62.5
      vertex 7.77953 -7.1805 62.5
      vertex 8.42231 -6.41446 62.5
    endloop
  endfacet
  facet normal 0 0 1
    outer loop
      vertex 7.77953 -7.1805 62.5
      vertex 3.82605 -2.55773 62.5
      vertex 3.18326 -3.32378 62.5
    endloop
  endfacet
  facet normal 0.766044 -0.642788 0
    outer loop
      vertex 7.77953 -7.1805 62.5
      vertex 8.42231 -6.41446 0.5
      vertex 8.42231 -6.41446 62.5
    endloop
  endfacet
  facet normal 0.766044 -0.642788 0
    outer loop
      vertex 8.42231 -6.41446 0.5
      vertex 7.77953 -7.1805 62.5
      vertex 7.77953 -7.1805 0.5
    endloop
  endfacet
  facet normal 0 0 -1
    outer loop
      vertex 7.77953 -7.1805 0.5
      vertex 6.08318 -4.45169 0.5
      vertex 8.42231 -6.41446 0.5
    endloop
  endfacet
  facet normal 0 -0 -1
    outer loop
      vertex 6.08318 -4.45169 0.5
      vertex 7.77953 -7.1805 0.5
      vertex 5.41365 -5.19529 0.5
    endloop
  endfacet
  facet normal -0.642788 -0.766044 0
    outer loop
      vertex 5.41365 -5.19529 61
      vertex 3.18326 -3.32378 62.5
      vertex 3.18326 -3.32378 61
    endloop
  endfacet
  facet normal -0.642788 -0.766044 -1.99705e-08
    outer loop
      vertex 3.18326 -3.32378 62.5
      vertex 5.41365 -5.19529 61
      vertex 7.77953 -7.1805 62.5
    endloop
  endfacet
  facet normal -0.642788 -0.766044 0
    outer loop
      vertex 7.77953 -7.1805 0.5
      vertex 5.41365 -5.19529 61
      vertex 5.41365 -5.19529 0.5
    endloop
  endfacet
  facet normal -0.642788 -0.766044 0
    outer loop
      vertex 5.41365 -5.19529 61
      vertex 7.77953 -7.1805 0.5
      vertex 7.77953 -7.1805 62.5
    endloop
  endfacet
  facet normal 0.642788 0.766044 -1.43691e-07
    outer loop
      vertex 8.42231 -6.41446 62.5
      vertex 6.08318 -4.45169 61
      vertex 3.82605 -2.55773 62.5
    endloop
  endfacet
  facet normal 0.642788 0.766044 -0
    outer loop
      vertex 8.42231 -6.41446 0.5
      vertex 6.08318 -4.45169 61
      vertex 8.42231 -6.41446 62.5
    endloop
  endfacet
  facet normal 0.642788 0.766044 0
    outer loop
      vertex 6.08318 -4.45169 61
      vertex 8.42231 -6.41446 0.5
      vertex 6.08318 -4.45169 0.5
    endloop
  endfacet
  facet normal 0.642788 0.766044 0
    outer loop
      vertex 3.82605 -2.55773 62.5
      vertex 6.08318 -4.45169 61
      vertex 3.82605 -2.55773 61
    endloop
  endfacet
endsolid OpenSCAD_Model
